<svg xmlns="http://www.w3.org/2000/svg" width="980" height="520">
<rect width="100%" height="100%" fill="#fbf8ef" />
<text x="490.00" y="30.00" font-size="24" fill="#111" text-anchor="middle" font-weight="bold">DRAM read Bandwidth</text>
<line x1="90.00" y1="450.00" x2="800.00" y2="450.00" stroke="#333" stroke-width="2" />
<line x1="90.00" y1="450.00" x2="90.00" y2="60.00" stroke="#333" stroke-width="2" />
<line x1="90.00" y1="450.00" x2="90.00" y2="456.00" stroke="#333" stroke-width="1" />
<line x1="90.00" y1="450.00" x2="90.00" y2="60.00" stroke="#d0d0d0" stroke-width="1" stroke-dasharray="3,4" />
<text x="90.00" y="474.00" font-size="12" fill="#111" text-anchor="middle" font-weight="normal">1</text>
<line x1="191.43" y1="450.00" x2="191.43" y2="456.00" stroke="#333" stroke-width="1" />
<line x1="191.43" y1="450.00" x2="191.43" y2="60.00" stroke="#d0d0d0" stroke-width="1" stroke-dasharray="3,4" />
<text x="191.43" y="474.00" font-size="12" fill="#111" text-anchor="middle" font-weight="normal">2</text>
<line x1="292.86" y1="450.00" x2="292.86" y2="456.00" stroke="#333" stroke-width="1" />
<line x1="292.86" y1="450.00" x2="292.86" y2="60.00" stroke="#d0d0d0" stroke-width="1" stroke-dasharray="3,4" />
<text x="292.86" y="474.00" font-size="12" fill="#111" text-anchor="middle" font-weight="normal">4</text>
<line x1="394.29" y1="450.00" x2="394.29" y2="456.00" stroke="#333" stroke-width="1" />
<line x1="394.29" y1="450.00" x2="394.29" y2="60.00" stroke="#d0d0d0" stroke-width="1" stroke-dasharray="3,4" />
<text x="394.29" y="474.00" font-size="12" fill="#111" text-anchor="middle" font-weight="normal">8</text>
<line x1="495.71" y1="450.00" x2="495.71" y2="456.00" stroke="#333" stroke-width="1" />
<line x1="495.71" y1="450.00" x2="495.71" y2="60.00" stroke="#d0d0d0" stroke-width="1" stroke-dasharray="3,4" />
<text x="495.71" y="474.00" font-size="12" fill="#111" text-anchor="middle" font-weight="normal">16</text>
<line x1="597.14" y1="450.00" x2="597.14" y2="456.00" stroke="#333" stroke-width="1" />
<line x1="597.14" y1="450.00" x2="597.14" y2="60.00" stroke="#d0d0d0" stroke-width="1" stroke-dasharray="3,4" />
<text x="597.14" y="474.00" font-size="12" fill="#111" text-anchor="middle" font-weight="normal">32</text>
<line x1="698.57" y1="450.00" x2="698.57" y2="456.00" stroke="#333" stroke-width="1" />
<line x1="698.57" y1="450.00" x2="698.57" y2="60.00" stroke="#d0d0d0" stroke-width="1" stroke-dasharray="3,4" />
<text x="698.57" y="474.00" font-size="12" fill="#111" text-anchor="middle" font-weight="normal">64</text>
<line x1="800.00" y1="450.00" x2="800.00" y2="456.00" stroke="#333" stroke-width="1" />
<line x1="800.00" y1="450.00" x2="800.00" y2="60.00" stroke="#d0d0d0" stroke-width="1" stroke-dasharray="3,4" />
<text x="800.00" y="474.00" font-size="12" fill="#111" text-anchor="middle" font-weight="normal">128</text>
<line x1="84.00" y1="450.00" x2="90.00" y2="450.00" stroke="#333" stroke-width="1" />
<text x="80.00" y="454.00" font-size="12" fill="#111" text-anchor="end" font-weight="normal">0.0</text>
<line x1="84.00" y1="372.00" x2="90.00" y2="372.00" stroke="#333" stroke-width="1" />
<line x1="90.00" y1="372.00" x2="800.00" y2="372.00" stroke="#d0d0d0" stroke-width="1" stroke-dasharray="3,4" />
<text x="80.00" y="376.00" font-size="12" fill="#111" text-anchor="end" font-weight="normal">5.0</text>
<line x1="84.00" y1="294.00" x2="90.00" y2="294.00" stroke="#333" stroke-width="1" />
<line x1="90.00" y1="294.00" x2="800.00" y2="294.00" stroke="#d0d0d0" stroke-width="1" stroke-dasharray="3,4" />
<text x="80.00" y="298.00" font-size="12" fill="#111" text-anchor="end" font-weight="normal">9.9</text>
<line x1="84.00" y1="216.00" x2="90.00" y2="216.00" stroke="#333" stroke-width="1" />
<line x1="90.00" y1="216.00" x2="800.00" y2="216.00" stroke="#d0d0d0" stroke-width="1" stroke-dasharray="3,4" />
<text x="80.00" y="220.00" font-size="12" fill="#111" text-anchor="end" font-weight="normal">14.9</text>
<line x1="84.00" y1="138.00" x2="90.00" y2="138.00" stroke="#333" stroke-width="1" />
<line x1="90.00" y1="138.00" x2="800.00" y2="138.00" stroke="#d0d0d0" stroke-width="1" stroke-dasharray="3,4" />
<text x="80.00" y="142.00" font-size="12" fill="#111" text-anchor="end" font-weight="normal">19.9</text>
<line x1="84.00" y1="60.00" x2="90.00" y2="60.00" stroke="#333" stroke-width="1" />
<line x1="90.00" y1="60.00" x2="800.00" y2="60.00" stroke="#d0d0d0" stroke-width="1" stroke-dasharray="3,4" />
<text x="80.00" y="64.00" font-size="12" fill="#111" text-anchor="end" font-weight="normal">24.8</text>
<text x="445.00" y="500.00" font-size="15" fill="#111" text-anchor="middle" font-weight="bold">Burst count</text>
<text x="24.00" y="255.00" font-size="15" fill="#111" text-anchor="middle" font-weight="bold" transform="rotate(-90.00 24.00 255.00)">Bandwidth (GB/s)</text>
<polyline fill="none" stroke="#0b7285" stroke-width="2.5" points="90.00,260.59 191.43,217.23 292.86,187.14 394.29,168.98 495.71,158.92 597.14,114.73 698.57,87.60 800.00,72.33" />
<circle cx="90.00" cy="260.59" r="3.5" fill="#0b7285" />
<circle cx="191.43" cy="217.23" r="3.5" fill="#0b7285" />
<circle cx="292.86" cy="187.14" r="3.5" fill="#0b7285" />
<circle cx="394.29" cy="168.98" r="3.5" fill="#0b7285" />
<circle cx="495.71" cy="158.92" r="3.5" fill="#0b7285" />
<circle cx="597.14" cy="114.73" r="3.5" fill="#0b7285" />
<circle cx="698.57" cy="87.60" r="3.5" fill="#0b7285" />
<circle cx="800.00" cy="72.33" r="3.5" fill="#0b7285" />
<line x1="824.00" y1="75.00" x2="842.00" y2="75.00" stroke="#0b7285" stroke-width="3" />
<text x="850.00" y="80.00" font-size="13" fill="#111" text-anchor="start" font-weight="normal">512B</text>
<polyline fill="none" stroke="#c92a2a" stroke-width="2.5" points="90.00,217.23 191.43,187.14 292.86,168.98 394.29,158.92 495.71,114.73 597.14,87.60 698.57,72.33 800.00,64.20" />
<circle cx="90.00" cy="217.23" r="3.5" fill="#c92a2a" />
<circle cx="191.43" cy="187.14" r="3.5" fill="#c92a2a" />
<circle cx="292.86" cy="168.98" r="3.5" fill="#c92a2a" />
<circle cx="394.29" cy="158.92" r="3.5" fill="#c92a2a" />
<circle cx="495.71" cy="114.73" r="3.5" fill="#c92a2a" />
<circle cx="597.14" cy="87.60" r="3.5" fill="#c92a2a" />
<circle cx="698.57" cy="72.33" r="3.5" fill="#c92a2a" />
<circle cx="800.00" cy="64.20" r="3.5" fill="#c92a2a" />
<line x1="824.00" y1="99.00" x2="842.00" y2="99.00" stroke="#c92a2a" stroke-width="3" />
<text x="850.00" y="104.00" font-size="13" fill="#111" text-anchor="start" font-weight="normal">1KB</text>
<polyline fill="none" stroke="#2b8a3e" stroke-width="2.5" points="90.00,187.14 191.43,168.98 292.86,158.92 394.29,114.73 495.71,87.60 597.14,72.33 698.57,64.20 800.00,60.00" />
<circle cx="90.00" cy="187.14" r="3.5" fill="#2b8a3e" />
<circle cx="191.43" cy="168.98" r="3.5" fill="#2b8a3e" />
<circle cx="292.86" cy="158.92" r="3.5" fill="#2b8a3e" />
<circle cx="394.29" cy="114.73" r="3.5" fill="#2b8a3e" />
<circle cx="495.71" cy="87.60" r="3.5" fill="#2b8a3e" />
<circle cx="597.14" cy="72.33" r="3.5" fill="#2b8a3e" />
<circle cx="698.57" cy="64.20" r="3.5" fill="#2b8a3e" />
<circle cx="800.00" cy="60.00" r="3.5" fill="#2b8a3e" />
<line x1="824.00" y1="123.00" x2="842.00" y2="123.00" stroke="#2b8a3e" stroke-width="3" />
<text x="850.00" y="128.00" font-size="13" fill="#111" text-anchor="start" font-weight="normal">2KB</text>
<polyline fill="none" stroke="#e67700" stroke-width="2.5" points="90.00,168.98 191.43,158.92 292.86,114.73 394.29,87.60 495.71,72.33 597.14,64.20 698.57,60.00 800.00,62.78" />
<circle cx="90.00" cy="168.98" r="3.5" fill="#e67700" />
<circle cx="191.43" cy="158.92" r="3.5" fill="#e67700" />
<circle cx="292.86" cy="114.73" r="3.5" fill="#e67700" />
<circle cx="394.29" cy="87.60" r="3.5" fill="#e67700" />
<circle cx="495.71" cy="72.33" r="3.5" fill="#e67700" />
<circle cx="597.14" cy="64.20" r="3.5" fill="#e67700" />
<circle cx="698.57" cy="60.00" r="3.5" fill="#e67700" />
<circle cx="800.00" cy="62.78" r="3.5" fill="#e67700" />
<line x1="824.00" y1="147.00" x2="842.00" y2="147.00" stroke="#e67700" stroke-width="3" />
<text x="850.00" y="152.00" font-size="13" fill="#111" text-anchor="start" font-weight="normal">4KB</text>
<polyline fill="none" stroke="#5f3dc4" stroke-width="2.5" points="90.00,158.92 191.43,114.73 292.86,87.60 394.29,72.33 495.71,64.20 597.14,60.00 698.57,62.78 800.00,64.15" />
<circle cx="90.00" cy="158.92" r="3.5" fill="#5f3dc4" />
<circle cx="191.43" cy="114.73" r="3.5" fill="#5f3dc4" />
<circle cx="292.86" cy="87.60" r="3.5" fill="#5f3dc4" />
<circle cx="394.29" cy="72.33" r="3.5" fill="#5f3dc4" />
<circle cx="495.71" cy="64.20" r="3.5" fill="#5f3dc4" />
<circle cx="597.14" cy="60.00" r="3.5" fill="#5f3dc4" />
<circle cx="698.57" cy="62.78" r="3.5" fill="#5f3dc4" />
<circle cx="800.00" cy="64.15" r="3.5" fill="#5f3dc4" />
<line x1="824.00" y1="171.00" x2="842.00" y2="171.00" stroke="#5f3dc4" stroke-width="3" />
<text x="850.00" y="176.00" font-size="13" fill="#111" text-anchor="start" font-weight="normal">8KB</text>
<polyline fill="none" stroke="#364fc7" stroke-width="2.5" points="90.00,114.73 191.43,87.60 292.86,72.33 394.29,64.20 495.71,60.00 597.14,62.78 698.57,64.15 800.00,64.84" />
<circle cx="90.00" cy="114.73" r="3.5" fill="#364fc7" />
<circle cx="191.43" cy="87.60" r="3.5" fill="#364fc7" />
<circle cx="292.86" cy="72.33" r="3.5" fill="#364fc7" />
<circle cx="394.29" cy="64.20" r="3.5" fill="#364fc7" />
<circle cx="495.71" cy="60.00" r="3.5" fill="#364fc7" />
<circle cx="597.14" cy="62.78" r="3.5" fill="#364fc7" />
<circle cx="698.57" cy="64.15" r="3.5" fill="#364fc7" />
<circle cx="800.00" cy="64.84" r="3.5" fill="#364fc7" />
<line x1="824.00" y1="195.00" x2="842.00" y2="195.00" stroke="#364fc7" stroke-width="3" />
<text x="850.00" y="200.00" font-size="13" fill="#111" text-anchor="start" font-weight="normal">16KB</text>
</svg>