<svg xmlns="http://www.w3.org/2000/svg" width="980" height="520">
<rect width="100%" height="100%" fill="#fbf8ef" />
<text x="490.00" y="30.00" font-size="24" fill="#111" text-anchor="middle" font-weight="bold">SSD write Bandwidth</text>
<line x1="90.00" y1="450.00" x2="800.00" y2="450.00" stroke="#333" stroke-width="2" />
<line x1="90.00" y1="450.00" x2="90.00" y2="60.00" stroke="#333" stroke-width="2" />
<line x1="90.00" y1="450.00" x2="90.00" y2="456.00" stroke="#333" stroke-width="1" />
<line x1="90.00" y1="450.00" x2="90.00" y2="60.00" stroke="#d0d0d0" stroke-width="1" stroke-dasharray="3,4" />
<text x="90.00" y="474.00" font-size="12" fill="#111" text-anchor="middle" font-weight="normal">1</text>
<line x1="191.43" y1="450.00" x2="191.43" y2="456.00" stroke="#333" stroke-width="1" />
<line x1="191.43" y1="450.00" x2="191.43" y2="60.00" stroke="#d0d0d0" stroke-width="1" stroke-dasharray="3,4" />
<text x="191.43" y="474.00" font-size="12" fill="#111" text-anchor="middle" font-weight="normal">2</text>
<line x1="292.86" y1="450.00" x2="292.86" y2="456.00" stroke="#333" stroke-width="1" />
<line x1="292.86" y1="450.00" x2="292.86" y2="60.00" stroke="#d0d0d0" stroke-width="1" stroke-dasharray="3,4" />
<text x="292.86" y="474.00" font-size="12" fill="#111" text-anchor="middle" font-weight="normal">4</text>
<line x1="394.29" y1="450.00" x2="394.29" y2="456.00" stroke="#333" stroke-width="1" />
<line x1="394.29" y1="450.00" x2="394.29" y2="60.00" stroke="#d0d0d0" stroke-width="1" stroke-dasharray="3,4" />
<text x="394.29" y="474.00" font-size="12" fill="#111" text-anchor="middle" font-weight="normal">8</text>
<line x1="495.71" y1="450.00" x2="495.71" y2="456.00" stroke="#333" stroke-width="1" />
<line x1="495.71" y1="450.00" x2="495.71" y2="60.00" stroke="#d0d0d0" stroke-width="1" stroke-dasharray="3,4" />
<text x="495.71" y="474.00" font-size="12" fill="#111" text-anchor="middle" font-weight="normal">16</text>
<line x1="597.14" y1="450.00" x2="597.14" y2="456.00" stroke="#333" stroke-width="1" />
<line x1="597.14" y1="450.00" x2="597.14" y2="60.00" stroke="#d0d0d0" stroke-width="1" stroke-dasharray="3,4" />
<text x="597.14" y="474.00" font-size="12" fill="#111" text-anchor="middle" font-weight="normal">32</text>
<line x1="698.57" y1="450.00" x2="698.57" y2="456.00" stroke="#333" stroke-width="1" />
<line x1="698.57" y1="450.00" x2="698.57" y2="60.00" stroke="#d0d0d0" stroke-width="1" stroke-dasharray="3,4" />
<text x="698.57" y="474.00" font-size="12" fill="#111" text-anchor="middle" font-weight="normal">64</text>
<line x1="800.00" y1="450.00" x2="800.00" y2="456.00" stroke="#333" stroke-width="1" />
<line x1="800.00" y1="450.00" x2="800.00" y2="60.00" stroke="#d0d0d0" stroke-width="1" stroke-dasharray="3,4" />
<text x="800.00" y="474.00" font-size="12" fill="#111" text-anchor="middle" font-weight="normal">128</text>
<line x1="84.00" y1="450.00" x2="90.00" y2="450.00" stroke="#333" stroke-width="1" />
<text x="80.00" y="454.00" font-size="12" fill="#111" text-anchor="end" font-weight="normal">0.0</text>
<line x1="84.00" y1="372.00" x2="90.00" y2="372.00" stroke="#333" stroke-width="1" />
<line x1="90.00" y1="372.00" x2="800.00" y2="372.00" stroke="#d0d0d0" stroke-width="1" stroke-dasharray="3,4" />
<text x="80.00" y="376.00" font-size="12" fill="#111" text-anchor="end" font-weight="normal">1.8</text>
<line x1="84.00" y1="294.00" x2="90.00" y2="294.00" stroke="#333" stroke-width="1" />
<line x1="90.00" y1="294.00" x2="800.00" y2="294.00" stroke="#d0d0d0" stroke-width="1" stroke-dasharray="3,4" />
<text x="80.00" y="298.00" font-size="12" fill="#111" text-anchor="end" font-weight="normal">3.7</text>
<line x1="84.00" y1="216.00" x2="90.00" y2="216.00" stroke="#333" stroke-width="1" />
<line x1="90.00" y1="216.00" x2="800.00" y2="216.00" stroke="#d0d0d0" stroke-width="1" stroke-dasharray="3,4" />
<text x="80.00" y="220.00" font-size="12" fill="#111" text-anchor="end" font-weight="normal">5.5</text>
<line x1="84.00" y1="138.00" x2="90.00" y2="138.00" stroke="#333" stroke-width="1" />
<line x1="90.00" y1="138.00" x2="800.00" y2="138.00" stroke="#d0d0d0" stroke-width="1" stroke-dasharray="3,4" />
<text x="80.00" y="142.00" font-size="12" fill="#111" text-anchor="end" font-weight="normal">7.4</text>
<line x1="84.00" y1="60.00" x2="90.00" y2="60.00" stroke="#333" stroke-width="1" />
<line x1="90.00" y1="60.00" x2="800.00" y2="60.00" stroke="#d0d0d0" stroke-width="1" stroke-dasharray="3,4" />
<text x="80.00" y="64.00" font-size="12" fill="#111" text-anchor="end" font-weight="normal">9.2</text>
<text x="445.00" y="500.00" font-size="15" fill="#111" text-anchor="middle" font-weight="bold">Burst count</text>
<text x="24.00" y="255.00" font-size="15" fill="#111" text-anchor="middle" font-weight="bold" transform="rotate(-90.00 24.00 255.00)">Bandwidth (GB/s)</text>
<polyline fill="none" stroke="#0b7285" stroke-width="2.5" points="90.00,443.24 191.43,443.24 292.86,443.24 394.29,443.24 495.71,436.48 597.14,422.96 698.57,395.92 800.00,341.84" />
<circle cx="90.00" cy="443.24" r="3.5" fill="#0b7285" />
<circle cx="191.43" cy="443.24" r="3.5" fill="#0b7285" />
<circle cx="292.86" cy="443.24" r="3.5" fill="#0b7285" />
<circle cx="394.29" cy="443.24" r="3.5" fill="#0b7285" />
<circle cx="495.71" cy="436.48" r="3.5" fill="#0b7285" />
<circle cx="597.14" cy="422.96" r="3.5" fill="#0b7285" />
<circle cx="698.57" cy="395.92" r="3.5" fill="#0b7285" />
<circle cx="800.00" cy="341.84" r="3.5" fill="#0b7285" />
<line x1="824.00" y1="75.00" x2="842.00" y2="75.00" stroke="#0b7285" stroke-width="3" />
<text x="850.00" y="80.00" font-size="13" fill="#111" text-anchor="start" font-weight="normal">512B</text>
<polyline fill="none" stroke="#c92a2a" stroke-width="2.5" points="90.00,443.24 191.43,443.24 292.86,443.24 394.29,436.48 495.71,422.96 597.14,395.92 698.57,341.84 800.00,233.67" />
<circle cx="90.00" cy="443.24" r="3.5" fill="#c92a2a" />
<circle cx="191.43" cy="443.24" r="3.5" fill="#c92a2a" />
<circle cx="292.86" cy="443.24" r="3.5" fill="#c92a2a" />
<circle cx="394.29" cy="436.48" r="3.5" fill="#c92a2a" />
<circle cx="495.71" cy="422.96" r="3.5" fill="#c92a2a" />
<circle cx="597.14" cy="395.92" r="3.5" fill="#c92a2a" />
<circle cx="698.57" cy="341.84" r="3.5" fill="#c92a2a" />
<circle cx="800.00" cy="233.67" r="3.5" fill="#c92a2a" />
<line x1="824.00" y1="99.00" x2="842.00" y2="99.00" stroke="#c92a2a" stroke-width="3" />
<text x="850.00" y="104.00" font-size="13" fill="#111" text-anchor="start" font-weight="normal">1KB</text>
<polyline fill="none" stroke="#2b8a3e" stroke-width="2.5" points="90.00,443.24 191.43,443.24 292.86,436.48 394.29,422.96 495.71,395.92 597.14,341.84 698.57,233.67 800.00,192.42" />
<circle cx="90.00" cy="443.24" r="3.5" fill="#2b8a3e" />
<circle cx="191.43" cy="443.24" r="3.5" fill="#2b8a3e" />
<circle cx="292.86" cy="436.48" r="3.5" fill="#2b8a3e" />
<circle cx="394.29" cy="422.96" r="3.5" fill="#2b8a3e" />
<circle cx="495.71" cy="395.92" r="3.5" fill="#2b8a3e" />
<circle cx="597.14" cy="341.84" r="3.5" fill="#2b8a3e" />
<circle cx="698.57" cy="233.67" r="3.5" fill="#2b8a3e" />
<circle cx="800.00" cy="192.42" r="3.5" fill="#2b8a3e" />
<line x1="824.00" y1="123.00" x2="842.00" y2="123.00" stroke="#2b8a3e" stroke-width="3" />
<text x="850.00" y="128.00" font-size="13" fill="#111" text-anchor="start" font-weight="normal">2KB</text>
<polyline fill="none" stroke="#e67700" stroke-width="2.5" points="90.00,443.24 191.43,436.48 292.86,422.96 394.29,395.92 495.71,341.84 597.14,233.67 698.57,192.42 800.00,136.23" />
<circle cx="90.00" cy="443.24" r="3.5" fill="#e67700" />
<circle cx="191.43" cy="436.48" r="3.5" fill="#e67700" />
<circle cx="292.86" cy="422.96" r="3.5" fill="#e67700" />
<circle cx="394.29" cy="395.92" r="3.5" fill="#e67700" />
<circle cx="495.71" cy="341.84" r="3.5" fill="#e67700" />
<circle cx="597.14" cy="233.67" r="3.5" fill="#e67700" />
<circle cx="698.57" cy="192.42" r="3.5" fill="#e67700" />
<circle cx="800.00" cy="136.23" r="3.5" fill="#e67700" />
<line x1="824.00" y1="147.00" x2="842.00" y2="147.00" stroke="#e67700" stroke-width="3" />
<text x="850.00" y="152.00" font-size="13" fill="#111" text-anchor="start" font-weight="normal">4KB</text>
<polyline fill="none" stroke="#5f3dc4" stroke-width="2.5" points="90.00,436.48 191.43,422.96 292.86,395.92 394.29,341.84 495.71,233.67 597.14,192.42 698.57,136.23 800.00,91.55" />
<circle cx="90.00" cy="436.48" r="3.5" fill="#5f3dc4" />
<circle cx="191.43" cy="422.96" r="3.5" fill="#5f3dc4" />
<circle cx="292.86" cy="395.92" r="3.5" fill="#5f3dc4" />
<circle cx="394.29" cy="341.84" r="3.5" fill="#5f3dc4" />
<circle cx="495.71" cy="233.67" r="3.5" fill="#5f3dc4" />
<circle cx="597.14" cy="192.42" r="3.5" fill="#5f3dc4" />
<circle cx="698.57" cy="136.23" r="3.5" fill="#5f3dc4" />
<circle cx="800.00" cy="91.55" r="3.5" fill="#5f3dc4" />
<line x1="824.00" y1="171.00" x2="842.00" y2="171.00" stroke="#5f3dc4" stroke-width="3" />
<text x="850.00" y="176.00" font-size="13" fill="#111" text-anchor="start" font-weight="normal">8KB</text>
<polyline fill="none" stroke="#364fc7" stroke-width="2.5" points="90.00,422.96 191.43,395.92 292.86,341.84 394.29,233.67 495.71,192.42 597.14,136.23 698.57,91.55 800.00,60.00" />
<circle cx="90.00" cy="422.96" r="3.5" fill="#364fc7" />
<circle cx="191.43" cy="395.92" r="3.5" fill="#364fc7" />
<circle cx="292.86" cy="341.84" r="3.5" fill="#364fc7" />
<circle cx="394.29" cy="233.67" r="3.5" fill="#364fc7" />
<circle cx="495.71" cy="192.42" r="3.5" fill="#364fc7" />
<circle cx="597.14" cy="136.23" r="3.5" fill="#364fc7" />
<circle cx="698.57" cy="91.55" r="3.5" fill="#364fc7" />
<circle cx="800.00" cy="60.00" r="3.5" fill="#364fc7" />
<line x1="824.00" y1="195.00" x2="842.00" y2="195.00" stroke="#364fc7" stroke-width="3" />
<text x="850.00" y="200.00" font-size="13" fill="#111" text-anchor="start" font-weight="normal">16KB</text>
</svg>