<svg xmlns="http://www.w3.org/2000/svg" width="980" height="520">
<rect width="100%" height="100%" fill="#fbf8ef" />
<text x="490.00" y="30.00" font-size="24" fill="#111" text-anchor="middle" font-weight="bold">SSD write Average Latency</text>
<line x1="90.00" y1="450.00" x2="800.00" y2="450.00" stroke="#333" stroke-width="2" />
<line x1="90.00" y1="450.00" x2="90.00" y2="60.00" stroke="#333" stroke-width="2" />
<line x1="90.00" y1="450.00" x2="90.00" y2="456.00" stroke="#333" stroke-width="1" />
<line x1="90.00" y1="450.00" x2="90.00" y2="60.00" stroke="#d0d0d0" stroke-width="1" stroke-dasharray="3,4" />
<text x="90.00" y="474.00" font-size="12" fill="#111" text-anchor="middle" font-weight="normal">1</text>
<line x1="191.43" y1="450.00" x2="191.43" y2="456.00" stroke="#333" stroke-width="1" />
<line x1="191.43" y1="450.00" x2="191.43" y2="60.00" stroke="#d0d0d0" stroke-width="1" stroke-dasharray="3,4" />
<text x="191.43" y="474.00" font-size="12" fill="#111" text-anchor="middle" font-weight="normal">2</text>
<line x1="292.86" y1="450.00" x2="292.86" y2="456.00" stroke="#333" stroke-width="1" />
<line x1="292.86" y1="450.00" x2="292.86" y2="60.00" stroke="#d0d0d0" stroke-width="1" stroke-dasharray="3,4" />
<text x="292.86" y="474.00" font-size="12" fill="#111" text-anchor="middle" font-weight="normal">4</text>
<line x1="394.29" y1="450.00" x2="394.29" y2="456.00" stroke="#333" stroke-width="1" />
<line x1="394.29" y1="450.00" x2="394.29" y2="60.00" stroke="#d0d0d0" stroke-width="1" stroke-dasharray="3,4" />
<text x="394.29" y="474.00" font-size="12" fill="#111" text-anchor="middle" font-weight="normal">8</text>
<line x1="495.71" y1="450.00" x2="495.71" y2="456.00" stroke="#333" stroke-width="1" />
<line x1="495.71" y1="450.00" x2="495.71" y2="60.00" stroke="#d0d0d0" stroke-width="1" stroke-dasharray="3,4" />
<text x="495.71" y="474.00" font-size="12" fill="#111" text-anchor="middle" font-weight="normal">16</text>
<line x1="597.14" y1="450.00" x2="597.14" y2="456.00" stroke="#333" stroke-width="1" />
<line x1="597.14" y1="450.00" x2="597.14" y2="60.00" stroke="#d0d0d0" stroke-width="1" stroke-dasharray="3,4" />
<text x="597.14" y="474.00" font-size="12" fill="#111" text-anchor="middle" font-weight="normal">32</text>
<line x1="698.57" y1="450.00" x2="698.57" y2="456.00" stroke="#333" stroke-width="1" />
<line x1="698.57" y1="450.00" x2="698.57" y2="60.00" stroke="#d0d0d0" stroke-width="1" stroke-dasharray="3,4" />
<text x="698.57" y="474.00" font-size="12" fill="#111" text-anchor="middle" font-weight="normal">64</text>
<line x1="800.00" y1="450.00" x2="800.00" y2="456.00" stroke="#333" stroke-width="1" />
<line x1="800.00" y1="450.00" x2="800.00" y2="60.00" stroke="#d0d0d0" stroke-width="1" stroke-dasharray="3,4" />
<text x="800.00" y="474.00" font-size="12" fill="#111" text-anchor="middle" font-weight="normal">128</text>
<line x1="84.00" y1="450.00" x2="90.00" y2="450.00" stroke="#333" stroke-width="1" />
<text x="80.00" y="454.00" font-size="12" fill="#111" text-anchor="end" font-weight="normal">0.0</text>
<line x1="84.00" y1="372.00" x2="90.00" y2="372.00" stroke="#333" stroke-width="1" />
<line x1="90.00" y1="372.00" x2="800.00" y2="372.00" stroke="#d0d0d0" stroke-width="1" stroke-dasharray="3,4" />
<text x="80.00" y="376.00" font-size="12" fill="#111" text-anchor="end" font-weight="normal">24794</text>
<line x1="84.00" y1="294.00" x2="90.00" y2="294.00" stroke="#333" stroke-width="1" />
<line x1="90.00" y1="294.00" x2="800.00" y2="294.00" stroke="#d0d0d0" stroke-width="1" stroke-dasharray="3,4" />
<text x="80.00" y="298.00" font-size="12" fill="#111" text-anchor="end" font-weight="normal">49588</text>
<line x1="84.00" y1="216.00" x2="90.00" y2="216.00" stroke="#333" stroke-width="1" />
<line x1="90.00" y1="216.00" x2="800.00" y2="216.00" stroke="#d0d0d0" stroke-width="1" stroke-dasharray="3,4" />
<text x="80.00" y="220.00" font-size="12" fill="#111" text-anchor="end" font-weight="normal">74381</text>
<line x1="84.00" y1="138.00" x2="90.00" y2="138.00" stroke="#333" stroke-width="1" />
<line x1="90.00" y1="138.00" x2="800.00" y2="138.00" stroke="#d0d0d0" stroke-width="1" stroke-dasharray="3,4" />
<text x="80.00" y="142.00" font-size="12" fill="#111" text-anchor="end" font-weight="normal">99175</text>
<line x1="84.00" y1="60.00" x2="90.00" y2="60.00" stroke="#333" stroke-width="1" />
<line x1="90.00" y1="60.00" x2="800.00" y2="60.00" stroke="#d0d0d0" stroke-width="1" stroke-dasharray="3,4" />
<text x="80.00" y="64.00" font-size="12" fill="#111" text-anchor="end" font-weight="normal">123969</text>
<text x="445.00" y="500.00" font-size="15" fill="#111" text-anchor="middle" font-weight="bold">Burst count</text>
<text x="24.00" y="255.00" font-size="15" fill="#111" text-anchor="middle" font-weight="bold" transform="rotate(-90.00 24.00 255.00)">Latency (ns)</text>
<polyline fill="none" stroke="#0b7285" stroke-width="2.5" points="90.00,439.93 191.43,434.90 292.86,424.83 394.29,404.70 495.71,404.70 597.14,404.70 698.57,404.70 800.00,404.70" />
<circle cx="90.00" cy="439.93" r="3.5" fill="#0b7285" />
<circle cx="191.43" cy="434.90" r="3.5" fill="#0b7285" />
<circle cx="292.86" cy="424.83" r="3.5" fill="#0b7285" />
<circle cx="394.29" cy="404.70" r="3.5" fill="#0b7285" />
<circle cx="495.71" cy="404.70" r="3.5" fill="#0b7285" />
<circle cx="597.14" cy="404.70" r="3.5" fill="#0b7285" />
<circle cx="698.57" cy="404.70" r="3.5" fill="#0b7285" />
<circle cx="800.00" cy="404.70" r="3.5" fill="#0b7285" />
<line x1="824.00" y1="75.00" x2="842.00" y2="75.00" stroke="#0b7285" stroke-width="3" />
<text x="850.00" y="80.00" font-size="13" fill="#111" text-anchor="start" font-weight="normal">512B</text>
<polyline fill="none" stroke="#c92a2a" stroke-width="2.5" points="90.00,429.87 191.43,419.80 292.86,399.66 394.29,399.66 495.71,399.66 597.14,399.66 698.57,399.66 800.00,399.66" />
<circle cx="90.00" cy="429.87" r="3.5" fill="#c92a2a" />
<circle cx="191.43" cy="419.80" r="3.5" fill="#c92a2a" />
<circle cx="292.86" cy="399.66" r="3.5" fill="#c92a2a" />
<circle cx="394.29" cy="399.66" r="3.5" fill="#c92a2a" />
<circle cx="495.71" cy="399.66" r="3.5" fill="#c92a2a" />
<circle cx="597.14" cy="399.66" r="3.5" fill="#c92a2a" />
<circle cx="698.57" cy="399.66" r="3.5" fill="#c92a2a" />
<circle cx="800.00" cy="399.66" r="3.5" fill="#c92a2a" />
<line x1="824.00" y1="99.00" x2="842.00" y2="99.00" stroke="#c92a2a" stroke-width="3" />
<text x="850.00" y="104.00" font-size="13" fill="#111" text-anchor="start" font-weight="normal">1KB</text>
<polyline fill="none" stroke="#2b8a3e" stroke-width="2.5" points="90.00,409.73 191.43,389.60 292.86,389.60 394.29,389.60 495.71,389.60 597.14,389.60 698.57,389.60 800.00,374.43" />
<circle cx="90.00" cy="409.73" r="3.5" fill="#2b8a3e" />
<circle cx="191.43" cy="389.60" r="3.5" fill="#2b8a3e" />
<circle cx="292.86" cy="389.60" r="3.5" fill="#2b8a3e" />
<circle cx="394.29" cy="389.60" r="3.5" fill="#2b8a3e" />
<circle cx="495.71" cy="389.60" r="3.5" fill="#2b8a3e" />
<circle cx="597.14" cy="389.60" r="3.5" fill="#2b8a3e" />
<circle cx="698.57" cy="389.60" r="3.5" fill="#2b8a3e" />
<circle cx="800.00" cy="374.43" r="3.5" fill="#2b8a3e" />
<line x1="824.00" y1="123.00" x2="842.00" y2="123.00" stroke="#2b8a3e" stroke-width="3" />
<text x="850.00" y="128.00" font-size="13" fill="#111" text-anchor="start" font-weight="normal">2KB</text>
<polyline fill="none" stroke="#e67700" stroke-width="2.5" points="90.00,369.46 191.43,369.46 292.86,369.46 394.29,369.46 495.71,369.46 597.14,369.46 698.57,354.29 800.00,310.82" />
<circle cx="90.00" cy="369.46" r="3.5" fill="#e67700" />
<circle cx="191.43" cy="369.46" r="3.5" fill="#e67700" />
<circle cx="292.86" cy="369.46" r="3.5" fill="#e67700" />
<circle cx="394.29" cy="369.46" r="3.5" fill="#e67700" />
<circle cx="495.71" cy="369.46" r="3.5" fill="#e67700" />
<circle cx="597.14" cy="369.46" r="3.5" fill="#e67700" />
<circle cx="698.57" cy="354.29" r="3.5" fill="#e67700" />
<circle cx="800.00" cy="310.82" r="3.5" fill="#e67700" />
<line x1="824.00" y1="147.00" x2="842.00" y2="147.00" stroke="#e67700" stroke-width="3" />
<text x="850.00" y="152.00" font-size="13" fill="#111" text-anchor="start" font-weight="normal">4KB</text>
<polyline fill="none" stroke="#5f3dc4" stroke-width="2.5" points="90.00,369.46 191.43,369.46 292.86,369.46 394.29,369.46 495.71,369.46 597.14,353.85 698.57,310.37 800.00,225.97" />
<circle cx="90.00" cy="369.46" r="3.5" fill="#5f3dc4" />
<circle cx="191.43" cy="369.46" r="3.5" fill="#5f3dc4" />
<circle cx="292.86" cy="369.46" r="3.5" fill="#5f3dc4" />
<circle cx="394.29" cy="369.46" r="3.5" fill="#5f3dc4" />
<circle cx="495.71" cy="369.46" r="3.5" fill="#5f3dc4" />
<circle cx="597.14" cy="353.85" r="3.5" fill="#5f3dc4" />
<circle cx="698.57" cy="310.37" r="3.5" fill="#5f3dc4" />
<circle cx="800.00" cy="225.97" r="3.5" fill="#5f3dc4" />
<line x1="824.00" y1="171.00" x2="842.00" y2="171.00" stroke="#5f3dc4" stroke-width="3" />
<text x="850.00" y="176.00" font-size="13" fill="#111" text-anchor="start" font-weight="normal">8KB</text>
<polyline fill="none" stroke="#364fc7" stroke-width="2.5" points="90.00,369.46 191.43,369.46 292.86,369.46 394.29,369.46 495.71,352.99 597.14,309.44 698.57,224.99 800.00,60.00" />
<circle cx="90.00" cy="369.46" r="3.5" fill="#364fc7" />
<circle cx="191.43" cy="369.46" r="3.5" fill="#364fc7" />
<circle cx="292.86" cy="369.46" r="3.5" fill="#364fc7" />
<circle cx="394.29" cy="369.46" r="3.5" fill="#364fc7" />
<circle cx="495.71" cy="352.99" r="3.5" fill="#364fc7" />
<circle cx="597.14" cy="309.44" r="3.5" fill="#364fc7" />
<circle cx="698.57" cy="224.99" r="3.5" fill="#364fc7" />
<circle cx="800.00" cy="60.00" r="3.5" fill="#364fc7" />
<line x1="824.00" y1="195.00" x2="842.00" y2="195.00" stroke="#364fc7" stroke-width="3" />
<text x="850.00" y="200.00" font-size="13" fill="#111" text-anchor="start" font-weight="normal">16KB</text>
</svg>